<svg xmlns="http://www.w3.org/2000/svg" viewBox="0 0 120 120"><ellipse cx="60" cy="103" rx="50" ry="7" fill="#476b68" opacity=".1"/><path d="m16 56 20-23 42-4 24 26-8 39-57 8Z" fill="#90836b"/><path d="m16 56 20-23 42-4 24 26-30 17-37 0Z" fill="#9ead7b"/><path d="m35 42 42-6 14 14-22 13-31-1Z" fill="#c0c08a"/><path d="m39 76 4 20m16-21 0 21m22-25-3 20" stroke="#b8a488" stroke-width="3"/><path d="M46 42v19m15-22v24m16-20v17" stroke="#e5dcac" stroke-width="2"/><path d="M8 110q12-5 24 0t24 0t24 0t24 0" fill="none" stroke="#9bbcb7" stroke-width="2"/></svg>